P1
# CREATOR: GIMP PNM Filter Version 1.1
80 24
0000000000000000000100000000000000000010000000000000000000000000000000
0000000000000000000000000000011100000000000000111000000000000000000000
0000000000000000000000000000000000000001011100000000001110100000000000
0000000000000000000000000000000000000000000000000010011100000011100100
0000000000000000000000000000000000000000000000000000000000001000111111
1111000100000000000000000000000000000000000000000000000000000000000000
1011111111111111010000000000000000000000000000000000000000000000000000
0000000000111100011110001111000000000000000000000000000000000000000000
0000000000000001100001100100110010011000000000000000000000000000000000
0000000000000000000000011111000110010011001001100000000000000000000000
0111111000000000000000000000000011001110011001001100100110000000000000
0000000001111111111000000000000000000000001100011001110001111000111000
0000000000000000001111111111110000000000000000000000111001100111111100
1111111000000000000000000001111001111101100000000000000000000001101110
0011111111111111000000000000000000000111100111110010000000000000000000
0000001100000011111111110000000000000000000000111111111111000100000000
0000000000000001100000011011111100000000000000000000000011111111111000
0100000000000000000000001110000011000000000000000000000000000000001111
1111110000010000000000000000000000110000011100000000000000000000000000
0000001111111110000001000000000000000000000011000011111000000000000000
0000000000000000111110000000000100000000000000000000001100011111100000
0000000000000000000000000011110000001100010000000000000000000000011001
1111110000000000000000000000000000000111000000110010000000000000000000
0000011111111111100000000000000000000000000000011100000000011000000000
0000000000000000111111111111000000000000000000000000000000111000000011
0000000000000000000000000001111111111110000000000000000000000000000001
1110000110000000000000000000000000000011111111111100000000000000000000
000000000001111110000000000000