P1
# CREATOR: GIMP PNM Filter Version 1.1
80 24
0000000000000000000000000000000000000000000000000000000000000000000000
0000000000000000000001111111111111111111100000000000111111000111111111
0000111110000110000000000000000111111111111111111110000000000111111110
0111111111000111111100011000000000000000011111111111111111111000000000
1110001110011100000000111000111000000000000000000001111111111111111111
1000000000111000011001110000000011000001100110000000000000000111111111
1111111111100000000011100000000111000000001100000000011000000000000000
0000000000000000111110000000001110000000011111100000111111100001100000
0000000000000000000000000011111000000000111000000001111110000001111111
1001100000000000000000000000000000001111100000000011100000000111000000
0000000001100110000000000001111000000000000000111110000000001110000110
0111000000001100000110011000000000000111100000000000000011111000000000
1110001110011100000000111000111001100000000000011110000000000000001111
1000000000011111111001111111110001111111000110000000000001111000000000
0000001111100000000000111111000111111111000011111000011000000000000111
1000000000000000111110000000000000000000000000000000000000000000000000
0000000111100000000000000011111000000000000011111000100000001001000111
1110000000000000011110000000000000001111100000000000011111110011000001
1001001100011100000000000001111000000000000000000000000000000011000001
1001100011000000100000110000000000000111100000000000000000000000000000
0011000000100011011000010000000011000000000000011110111111111111110000
0000000000001111111110000111000001000000001100000000000001111011111111
1111110000000000000000100000000000011100000100001111110000000000000000
0011111111111111000000000000000011000000000011011000010001100011000000
0000000000001111111111111100000000000000001110000000011000110001001100
0011000000000000000000000000000000000000000000000000011111111011000001
1001001100001100000000000000000000000000000000000000000000000000111111
101000000010010001111111000000
