P1
# CREATOR: GIMP PNM Filter Version 1.1
80 24
0000000000000000000000000001111110000000000000000000000000000011111111
0000000000000000000000000000000000001010111110000000000000000000000100
1111111111100000000000000000000000000000000001000100011100000000000000
0000001111111111111111000000000000000000000000000000001010010000111100
0000000000000000011111111111111110000000000000000000000000000000101001
0001111110000000000000000000111110000111111100000000000000000000000000
0000100010001111111000000000000000000011100000001111110000000000000000
0000000000000111110000111111100000000000000000010001000000011111110000
0000000000000000000000100000100001111100000000000000000010001000000000
1111111000000000000000000000000001111101000011100000000000000000111111
1111100000111111110000000000000000000000000100001000111000000000000000
0000101001001001000011111111000000000011111100000000011111111111000000
0000000000000010000100000010001011111100000000111110001000000000000011
1100000000000000000000000111111000010000001111111000000111100001010000
0000000000000000000000000000000000100000011110000000111111100000111100
0010101000000000000000000000000000000000000001000000000000000011111110
0001111110001010100000000000000001100000000000000000111000000000000000
0001111110000111111100100010000000000000001011110000000000000100000000
0111111000000111111000011111110001111100000000000000100011111000000000
0100000000111111110000111111100001111110001000001000000000000001100001
1111000000001111111111111111100011111110000011110001011111000000000000
0000111000001111100000000000011111111111011111100000000011100010000100
0000000000000100010000000111110000000000111111111001101110000000000111
1111111100000000000000011010000000000011110000000100011111000100111000
0000000001111000000000000000000000010111110000000011110000001000000000
1000011100000000000000000000000000000000000000000000110000000011110010
0100000011000000110000000000000000000000000000000000000000000000111000
000011111100111111000000000100