P1
# CREATOR: GIMP PNM Filter Version 1.1
80 24
0000000000000000000000000000011111111111111111100000000000000000000000
0000000000000000000000000000000000000000111110111111111110000000000000
0000000000000000000000000000000000000000000000000001111001111111111000
0000000000000000000000000000000000000000000000000000000000000011101111
1111111100000000000000000000000000000000000000000000000000000000000000
0111111111000111110000000000000000000000000000000000000000000000000000
0000000000111111111000001111000000000000000000000000000000000000000000
0000000000000000000111111111100001101000000000000000000000000000000000
0000000000000000000000000000111101111110000110100000000000000000000000
0000000000000000000000000000000000000000001111111100010111000000000000
0000000000000000000000000000000000000000000000000001111110000000001000
0000000000000000000000000000000000000000000000000000000000001111111010
0001001000000000000000000000000000000000000000000000000000000000000001
1101111100101001000000000000000000000000000000000000000000000000000000
0000000000000000101111111100000000000000000000000000000000000000000000
0000000000000000000000000101110001111000000000000000000000000000000000
0000000000000000000000000000000000101001100100100000000000000000000000
0000000000000000000000000000000000000000000011000010110010000000000000
0000000000000000000000000000000000000000000000000000000100001101010000
0000000000000000000000000000000000000000000000000000000000000000001001
1111110000000000000000000000000000000000000000000000000000000000000000
0000000111111000000000000000000000000000000000000000000000000000000000
0000000000000000011110111000000000000000000000000000000000000000000000
0000000000000000000000000011011110011000000000000000000000000000000000
0000000000000000000000000000000000001101001110110000000000000000000000
0000000000000000000000000000000000000000000000110010101010100000000000
0000000000000000000000000000000000000000000000000000000011111111111110
000000000000000000000000000000